<?xml version="1.0" encoding="utf-8"?>
<!-- Generator: Adobe Illustrator 24.3.0, SVG Export Plug-In . SVG Version: 6.00 Build 0)  -->
<svg version="1.1" id="Layer_1" xmlns="http://www.w3.org/2000/svg" xmlns:xlink="http://www.w3.org/1999/xlink" x="0px" y="0px"
	 viewBox="0 0 500 500" style="enable-background:new 0 0 1430.3 422.5;" xml:space="preserve">
<style type="text/css">
	.st0 {
        fill: #2d3748;
    }
    @media (prefers-color-scheme: dark) {
        .st0 {
            fill: #fff;
        }
    }
</style>
	<g>
	<path class="st0" d="M285.4,130.9C285.4,58.6,226.8,0,154.5,0C82.2,0,23.6,58.6,23.6,130.9c0,72.3,58.6,130.9,130.8,130.9
		C226.8,261.7,285.4,203.1,285.4,130.9"/>
	<path class="st0" d="M271.2,432c0-37.1-30.1-67.2-67.2-67.2c-37.2,0-67.3,30.1-67.3,67.2c0,37.1,30.1,67.2,67.3,67.2
		C241.1,499.2,271.2,469.1,271.2,432"/>
	<path class="st0" d="M141,347.6c0-34.7-28.1-62.8-62.8-62.8c-34.7,0-62.8,28.1-62.8,62.8c0,34.7,28.1,62.8,62.8,62.8
		C112.9,410.4,141,382.3,141,347.6"/>
	<path class="st0" d="M484.6,295.1c0-61.6-50-111.6-111.6-111.6c-61.6,0-111.6,50-111.6,111.6c0,61.6,50,111.6,111.6,111.6
		C434.6,406.7,484.6,356.8,484.6,295.1"/>
	<circle class="st0" cx="78.2" cy="473" r="23.7"/>
	</g>
</svg>