<?xml version="1.0" encoding="utf-8"?>
<!-- Generator: Adobe Illustrator 24.0.1, SVG Export Plug-In . SVG Version: 6.00 Build 0)  -->
<svg version="1.1" id="Layer_1" xmlns="http://www.w3.org/2000/svg" xmlns:xlink="http://www.w3.org/1999/xlink" x="0px" y="0px"
	 viewBox="0 0 600 600" style="enable-background:new 0 0 600 600;" xml:space="preserve">
<style type="text/css">
	.st0{fill:#3B97D3;}
	.st1{fill:#7EA9BA;}
	.st2{fill:#F1893D;}
	.st3{fill:#7383A9;}
	.st4{fill:#010202;}
</style>
<path class="st0" d="M341.64,158.34c0-85.87-69.62-155.47-155.48-155.47c-85.85,0-155.46,69.6-155.46,155.47
	c0,85.88,69.61,155.48,155.46,155.48C272.03,313.82,341.64,244.21,341.64,158.34"/>
<path class="st1" d="M324.85,516.13c0-44.14-35.78-79.89-79.89-79.89c-44.14,0-79.91,35.75-79.91,79.89
	c0,44.11,35.76,79.89,79.91,79.89C289.07,596.01,324.85,560.23,324.85,516.13"/>
<path class="st2" d="M170.13,415.86c0-41.21-33.42-74.64-74.63-74.64c-41.21,0-74.61,33.42-74.61,74.64
	c0,41.21,33.4,74.62,74.61,74.62C136.71,490.48,170.13,457.07,170.13,415.86"/>
<path class="st3" d="M578.38,353.48c0-73.24-59.38-132.63-132.64-132.63c-73.23,0-132.62,59.39-132.62,132.63
	c0,73.25,59.4,132.64,132.62,132.64C519,486.12,578.38,426.72,578.38,353.48"/>
<circle class="st4" cx="95.54" cy="564.89" r="28.17"/>
</svg>
