<?xml version="1.0" encoding="utf-8"?>
<!-- Generator: Adobe Illustrator 24.1.2, SVG Export Plug-In . SVG Version: 6.00 Build 0)  -->
<svg version="1.1" id="Layer_1" xmlns="http://www.w3.org/2000/svg" xmlns:xlink="http://www.w3.org/1999/xlink" x="0px" y="0px"
	 viewBox="0 0 2002.5 200.1" style="enable-background:new 0 0 2002.5 200.1;" xml:space="preserve">
<style type="text/css">
	.st0{fill:#010202;}
	.st1{fill:#3B97D3;}
	.st2{fill:#7EA9BA;}
	.st3{fill:#F1893D;}
	.st4{fill:#7383A9;}
</style>
<g>
	<circle class="st0" cx="1390.6" cy="23.9" r="12.2"/>
	<path class="st0" d="M266.7,40.3v147.4H245V40.3h-32.3V25.7h86.2v14.6H266.7z"/>
	<path class="st0" d="M385.8,187.6V97.7c0-13.2-5.7-25-25.9-25c-9.4,0-17,1.6-24.7,6.4v108.5h-20.7V2.8h20.7v64.5
		c10.6-5.4,19.8-7.8,29.2-7.8c32.3,0,42.1,19.5,42.1,37.4v90.6H385.8z"/>
	<path class="st0" d="M446.3,132.1c2.4,28.7,15.8,42.8,38.6,42.8c14.4,0,24.7-3.5,31.3-7.3l5.4,13.7c-7.8,4.7-21.2,8.7-38.4,8.7
		c-33.2,0-56.5-21-56.5-66.2c0-43.1,21.2-65.4,51.1-65.4c30.4,0,48.7,19.8,48.3,62.2L446.3,132.1z M477.2,71.8
		c-18.4,0-32,14.8-31.5,49.2l60.7-9.2C506.4,83.1,495.3,71.8,477.2,71.8z"/>
	<path class="st0" d="M598.9,190.2V27.2h21.8v163.1H598.9z"/>
	<path class="st0" d="M720.2,190.2V98.5c0-11.9-5-24.9-26.8-24.9c-11.9,0-17.5,1.7-24.2,4.5v112.1h-20.9V69.1
		c11.4-5.5,26.3-9,46.7-9c35.6,0,46,19.7,46,37.9v92.2H720.2z"/>
	<path class="st0" d="M793.9,75.5v114.7h-20.9V75.5h-14.7v-13h14.7v-18c0-25.1,15.2-41.5,43.1-40.3v13.3
		c-12.6,0.7-22.3,6.6-22.3,24.6v20.4h22.3v13H793.9z"/>
	<path class="st0" d="M873.8,192.6c-34.8,0-50-28.7-50-66.1c0-38.2,15.4-66.4,49.8-66.4c35.1,0,50,28.2,50,66.4
		C923.5,163.9,908.4,192.6,873.8,192.6z M873.8,73.4c-24.4,0-29.2,27.3-29.2,53.1s5.2,51.7,29.2,51.7c24.4,0,28.9-26.1,28.9-51.7
		C902.7,100.9,898.2,73.4,873.8,73.4z"/>
	<path class="st0" d="M993.9,76.2c-10.4-3.1-22.3-2.1-29.2,2.4v111.6h-20.9V69.3c12.6-6.4,24.6-9.7,55-9L993.9,76.2z"/>
	<path class="st0" d="M1155.6,190.2v-92c0-12.8-6.2-24.4-24.6-24.4c-10.7,0-19,3.6-26.3,11.4v105h-20.9V97.3
		c0-14.2-9.5-23.7-28-23.7c-10.4,0-16.1,1.4-23,4.3v112.3h-20.9V69.1c11.6-5.7,23.9-9,44.3-9c19.7,0,31.5,5.9,39.1,15.4
		c8.8-9.2,21.8-15.4,39.6-15.4c30.6,0,41.5,19.9,41.5,37.7v92.4H1155.6z"/>
	<path class="st0" d="M1244,192.6c-33.2,0-48.6-14.5-48.6-37.7c0-33.9,31.8-43.8,71.3-47.9v-7.8c0-19.7-11.8-25.4-28.2-25.4
		c-12.3,0-23.7,4.5-30.8,8.1l-5-12.3c7.3-4,21.6-9.5,39.1-9.5c23.7,0,44.6,10.2,44.6,41.5v82C1276.7,189,1261.7,192.6,1244,192.6z
		 M1266.7,117.7c-32.2,4-51.4,10.9-51.4,36.7c0,18.5,11.4,26.1,30.3,26.1c8.1,0,15.9-1.4,21.1-4.3V117.7z"/>
	<path class="st0" d="M1349.2,191.4c-23.2,0-31.8-16.6-31.8-32.2V75.5h-14.7v-13h14.7V33.1l20.9-6.4v35.8h22.3v13h-22.3v83.2
		c0,10.2,4.5,18.5,16.1,18.5c2.1,0,4-0.5,6.2-0.9v13.3C1358.2,190.2,1354.4,191.4,1349.2,191.4z"/>
	<path class="st0" d="M1379.5,190.2V62.5h20.9v127.7H1379.5z"/>
	<path class="st0" d="M1472,192.6c-34.8,0-50-28.7-50-66.1c0-38.2,15.4-66.4,49.8-66.4c35.1,0,50,28.2,50,66.4
		C1521.7,163.9,1506.6,192.6,1472,192.6z M1472,73.4c-24.4,0-29.2,27.3-29.2,53.1s5.2,51.7,29.2,51.7c24.4,0,28.9-26.1,28.9-51.7
		C1500.9,100.9,1496.4,73.4,1472,73.4z"/>
	<path class="st0" d="M1613.9,190.2V98.5c0-11.9-5-24.9-26.8-24.9c-11.8,0-17.5,1.7-24.2,4.5v112.1h-20.9V69.1
		c11.4-5.5,26.3-9,46.7-9c35.5,0,46,19.7,46,37.9v92.2H1613.9z"/>
	<path class="st0" d="M1709.4,190.2V27.2h21.8v148.4h49.1v14.7H1709.4z"/>
	<path class="st0" d="M1838.5,192.6c-33.2,0-48.6-14.5-48.6-37.7c0-33.9,31.8-43.8,71.3-47.9v-7.8c0-19.7-11.8-25.4-28.2-25.4
		c-12.3,0-23.7,4.5-30.8,8.1l-5-12.3c7.3-4,21.6-9.5,39.1-9.5c23.7,0,44.6,10.2,44.6,41.5v82C1871.3,189,1856.3,192.6,1838.5,192.6z
		 M1861.3,117.7c-32.2,4-51.4,10.9-51.4,36.7c0,18.5,11.4,26.1,30.3,26.1c8.1,0,15.9-1.4,21.1-4.3V117.7z"/>
	<path class="st0" d="M1944.5,192.6c-17.3,0-30.6-4-38.2-9V4.2h20.6v62.6c6.4-3.3,13.5-5.9,26.1-5.9c29.4,0,49.5,24.6,49.5,63.3
		C2002.5,165.1,1982.4,192.6,1944.5,192.6z M1947.8,73.1c-9.5,0-14.9,1.7-20.9,5V176c4.7,2.4,11.4,3.1,18,3.1
		c26.3,0,36.7-22,36.7-54.3C1981.7,96.8,1972,73.1,1947.8,73.1z"/>
</g>
<path class="st1" d="M100.1,58.2c0-25.5-20.6-46.1-46.1-46.1c-25.4,0-46.1,20.6-46.1,46.1c0,25.5,20.6,46.1,46.1,46.1
	C79.5,104.3,100.1,83.7,100.1,58.2"/>
<path class="st2" d="M95.1,164.3c0-13.1-10.6-23.7-23.7-23.7c-13.1,0-23.7,10.6-23.7,23.7c0,13.1,10.6,23.7,23.7,23.7
	C84.5,188,95.1,177.4,95.1,164.3"/>
<path class="st3" d="M49.3,134.6c0-12.2-9.9-22.1-22.1-22.1c-12.2,0-22.1,9.9-22.1,22.1c0,12.2,9.9,22.1,22.1,22.1
	C39.3,156.7,49.3,146.8,49.3,134.6"/>
<path class="st4" d="M170.3,116.1c0-21.7-17.6-39.3-39.3-39.3c-21.7,0-39.3,17.6-39.3,39.3c0,21.7,17.6,39.3,39.3,39.3
	C152.7,155.4,170.3,137.8,170.3,116.1"/>
<circle class="st0" cx="27.1" cy="178.8" r="8.4"/>
</svg>
